HIERARCHY
ROOT Hips
{
	OFFSET 0.000000 0.000000 0.000000
	CHANNELS 6 Xposition Yposition Zposition Xrotation Yrotation Zrotation
	JOINT LeftUpLeg_virtual
	{
		OFFSET 0.000000 0.000000 0.000000
		CHANNELS 3 Xrotation Yrotation Zrotation
		JOINT LeftUpLeg
		{
			OFFSET 10.205400 -3.823500 0.155100
			CHANNELS 3 Xrotation Yrotation Zrotation
			JOINT LeftLeg
			{
				OFFSET 0.708757 -12.982077 0.567790
				CHANNELS 3 Xrotation Yrotation Zrotation
				JOINT LeftFoot
				{
					OFFSET -0.708756 -10.717838 -2.184338
					CHANNELS 3 Xrotation Yrotation Zrotation
					JOINT LeftToeBase
					{
						OFFSET 0.108149 -7.191104 7.560241
						CHANNELS 3 Xrotation Yrotation Zrotation
						JOINT LeftToe_End
						{
							OFFSET 0.070230 0.081724 4.490308
							CHANNELS 3 Xrotation Yrotation Zrotation
							End Site
							{
								OFFSET 0 0 0
							}
						}
					}
				}
			}
		}
	}
	JOINT RightUpLeg_virtual
	{
		OFFSET 0.000000 0.000000 0.000000
		CHANNELS 3 Xrotation Yrotation Zrotation
		JOINT RightUpLeg
		{
			OFFSET -10.205400 -3.823500 0.005500
			CHANNELS 3 Xrotation Yrotation Zrotation
			JOINT RightLeg
			{
				OFFSET -0.708756 -12.982134 0.610632
				CHANNELS 3 Xrotation Yrotation Zrotation
				JOINT RightFoot
				{
					OFFSET 0.708754 -10.717769 -1.945823
					CHANNELS 3 Xrotation Yrotation Zrotation
					JOINT RightToeBase
					{
						OFFSET -0.108140 -7.191069 7.372968
						CHANNELS 3 Xrotation Yrotation Zrotation
						JOINT RightToe_End
						{
							OFFSET -0.070227 0.081735 4.479403
							CHANNELS 3 Xrotation Yrotation Zrotation
							End Site
							{
								OFFSET 0 0 0
							}
						}
					}
				}
			}
		}
	}
	JOINT Spine_virtual
	{
		OFFSET 0.000000 0.000000 0.000000
		CHANNELS 3 Xrotation Yrotation Zrotation
		JOINT Spine
		{
			OFFSET 0.000000 6.876099 0.125700
			CHANNELS 3 Xrotation Yrotation Zrotation
			JOINT Spine1
			{
				OFFSET 0.000000 5.730043 0.104720
				CHANNELS 3 Xrotation Yrotation Zrotation
				JOINT Spine1_split
				{
					OFFSET 0.000000 5.730043 0.104720
					CHANNELS 3 Xrotation Yrotation Zrotation
					JOINT Spine2
					{
						OFFSET 0.000000 5.730043 0.104720
						CHANNELS 3 Xrotation Yrotation Zrotation
						JOINT Neck_virtual
						{
							OFFSET 0.000000 0.000000 0.000000
							CHANNELS 3 Xrotation Yrotation Zrotation
							JOINT Neck
							{
								OFFSET 0.000000 10.314075 0.188496
								CHANNELS 3 Xrotation Yrotation Zrotation
								JOINT Head
								{
									OFFSET 0.000000 7.643700 -2.377400
									CHANNELS 3 Xrotation Yrotation Zrotation
									JOINT HeadTop_End
									{
										OFFSET 0.000000 43.788605 -13.619600
										CHANNELS 3 Xrotation Yrotation Zrotation
										End Site
										{
											OFFSET 0 0 0
										}
									}
								}
							}
						}
						JOINT LeftShoulder_virtual
						{
							OFFSET 0.000000 0.000000 0.000000
							CHANNELS 3 Xrotation Yrotation Zrotation
							JOINT LeftShoulder
							{
								OFFSET 2.196100 4.412489 0.087492
								CHANNELS 3 Xrotation Yrotation Zrotation
								JOINT LeftShoulder_split
								{
									OFFSET 2.196100 4.412489 0.087492
									CHANNELS 3 Xrotation Yrotation Zrotation
									JOINT LeftArm
									{
										OFFSET 8.771219 -2.981674 -0.026999
										CHANNELS 3 Xrotation Yrotation Zrotation
										JOINT LeftForeArm
										{
											OFFSET 8.512804 0.000000 -0.000000
											CHANNELS 3 Xrotation Yrotation Zrotation
											JOINT LeftHand
											{
												OFFSET 18.484802 0.000000 -0.000000
												CHANNELS 3 Xrotation Yrotation Zrotation
												End Site
												{
													OFFSET 0 0 0
												}
											}
										}
									}
								}
							}
						}
						JOINT RightShoulder_virtual
						{
							OFFSET 0.000000 0.000000 0.000000
							CHANNELS 3 Xrotation Yrotation Zrotation
							JOINT RightShoulder
							{
								OFFSET -2.196100 4.412496 0.070690
								CHANNELS 3 Xrotation Yrotation Zrotation
								JOINT RightShoulder_split
								{
									OFFSET -2.196100 4.412496 0.070690
									CHANNELS 3 Xrotation Yrotation Zrotation
									JOINT RightArm
									{
										OFFSET -8.771282 -2.981682 -0.094208
										CHANNELS 3 Xrotation Yrotation Zrotation
										JOINT RightForeArm
										{
											OFFSET -8.494598 0.000000 0.000000
											CHANNELS 3 Xrotation Yrotation Zrotation
											JOINT RightHand
											{
												OFFSET -18.483803 0.000000 0.000001
												CHANNELS 3 Xrotation Yrotation Zrotation
												End Site
												{
													OFFSET 0 0 0
												}
											}
										}
									}
								}
							}
						}
					}
				}
			}
		}
	}
}
MOTION
Frames: 5
Frame Time: 0.03333333
2.906674 29.904638 -5.077842 0.000000 0.000000 0.000000 48.672256 6.744115 -6.988786 -91.227558 2.593010 20.222428 46.275904 9.062290 -3.775080 -5.387166 16.166042 -6.111120 -3.586749 1.178923 0.943544 0.000000 0.000000 0.000000 50.385295 4.759096 -5.310779 -36.802070 7.063006 -15.294440 65.051131 7.597085 -0.628723 -5.855556 -2.419556 11.891102 -11.225143 0.686971 4.641155 0.000000 0.000000 0.000000 52.380355 0.349397 -2.013552 11.809387 1.072284 -2.281193 12.127834 1.574229 -0.819140 -0.028191 1.573216 1.179784 0.000000 0.000000 0.000000 26.657556 1.302433 -0.898845 -23.646962 -2.613549 4.670594 -18.611849 3.942935 -7.143485 0.000000 0.000000 0.000000 25.703182 2.068064 -0.488673 3.593456 -6.276789 7.115947 8.379130 -11.859270 -5.684974 -23.082961 -48.115421 -28.272443 4.872017 -48.013785 4.907126 0.000000 0.000000 0.000000 24.680303 1.174485 -0.348106 -3.644031 33.130970 14.560667 8.310698 8.989984 0.617684 -52.277527 24.328686 23.703751 -0.214049 32.930825 -0.045126 0.000000 0.000000 0.000000 
2.819077 30.504997 -4.487510 0.000000 0.000000 0.000000 44.882730 4.770611 -5.679125 -84.573356 3.679856 19.105154 43.295193 8.940451 -3.689146 -5.174858 17.210110 -7.314614 -3.212640 1.248953 0.680418 0.000000 0.000000 0.000000 46.348035 2.942008 -4.060979 -41.431753 8.613969 -14.723311 69.529106 7.670793 -0.520260 -9.739303 -2.447818 10.333422 -7.026906 1.166029 1.604376 0.000000 0.000000 0.000000 48.301360 -1.007120 -1.670548 12.245637 1.066091 -2.351311 12.183086 1.561528 -0.620682 -0.033045 1.367017 1.189488 0.000000 0.000000 0.000000 26.561962 1.272409 -0.678645 -23.300811 -2.439573 4.648098 -17.715404 4.767770 -6.628760 0.000000 0.000000 0.000000 25.442784 2.024104 -0.294603 3.507780 -5.787427 5.782841 7.497520 -12.142014 -5.084585 -22.357161 -46.951776 -30.457740 4.482461 -47.558751 4.399358 0.000000 0.000000 0.000000 24.453436 1.142476 -0.209459 -4.017206 32.348978 15.702928 8.961028 8.630753 1.389648 -50.524586 23.659768 26.267723 -0.092159 31.833924 -0.444423 0.000000 0.000000 0.000000 
2.708351 31.002298 -3.910176 0.000000 0.000000 0.000000 41.159628 2.762286 -4.398425 -78.018464 4.406286 17.981327 40.714266 8.763465 -3.473615 -5.192740 17.650182 -8.461436 -3.207204 1.265527 0.542795 0.000000 0.000000 0.000000 42.404608 0.952533 -2.733096 -44.929565 10.179946 -14.294341 70.845591 7.755615 -0.576712 -11.578896 -1.950422 9.615511 -5.944670 1.112182 -0.002380 0.000000 0.000000 0.000000 44.383112 -2.386947 -1.251583 12.499486 0.990749 -2.458142 12.221094 1.587439 -0.409735 -0.076275 1.106649 1.285513 0.000000 0.000000 0.000000 26.415214 1.292156 -0.483604 -22.827302 -2.269499 4.534383 -16.859364 5.506923 -6.195778 0.000000 0.000000 0.000000 25.142362 2.034413 -0.087959 3.378214 -5.344460 4.326991 6.530744 -12.094458 -4.751063 -21.761341 -45.673209 -32.822658 3.880089 -46.206025 3.702340 0.000000 0.000000 0.000000 24.179645 1.164309 -0.070765 -4.192672 31.419782 16.446781 9.431113 8.250810 2.039347 -48.809409 22.673259 28.585347 -0.051495 30.756847 -0.869292 0.000000 0.000000 0.000000 
2.562135 31.406401 -3.334312 0.000000 0.000000 0.000000 37.657845 0.865436 -3.365458 -71.735353 4.885935 17.174195 38.511438 8.588301 -3.220969 -5.417646 17.649036 -9.226153 -3.011660 1.234090 0.503475 0.000000 0.000000 0.000000 38.630341 -1.009065 -1.601825 -47.026949 11.487662 -14.087283 68.784417 7.586649 -0.533891 -12.101990 -1.308569 8.776657 -6.089755 0.756068 -0.164153 0.000000 0.000000 0.000000 40.744886 -3.764411 -0.848970 12.564527 0.877477 -2.564888 12.229478 1.649577 -0.174933 -0.114986 0.922540 1.400152 0.000000 0.000000 0.000000 26.210463 1.350091 -0.292996 -22.254177 -2.122195 4.367348 -16.012964 6.140224 -5.869329 0.000000 0.000000 0.000000 24.794084 2.082573 0.139980 3.230058 -4.995098 2.891108 5.782255 -11.810231 -4.627208 -21.205355 -44.392483 -35.218614 3.257124 -44.304333 2.977728 0.000000 0.000000 0.000000 23.857646 1.231271 0.090736 -4.174848 30.379035 16.813440 9.592657 7.790613 2.671087 -46.976993 21.383529 30.519010 -0.100321 29.878058 -1.291551 0.000000 0.000000 0.000000 
2.381197 31.734985 -2.743858 0.000000 0.000000 0.000000 34.415090 -0.908110 -2.640323 -65.773752 5.264687 16.741180 36.481362 8.549945 -2.873445 -5.983376 17.514806 -9.517099 -2.318375 1.201329 0.456371 0.000000 0.000000 0.000000 35.124555 -2.778661 -0.884030 -47.828297 12.195443 -14.250542 64.001249 7.022891 -0.452890 -11.711993 -0.725226 7.805064 -6.644583 0.298634 0.571623 0.000000 0.000000 0.000000 37.392062 -4.978364 -0.529284 12.504975 0.740247 -2.634717 12.199534 1.718060 0.073568 -0.125057 0.723730 1.513341 0.000000 0.000000 0.000000 25.943155 1.414347 -0.098090 -21.653230 -2.022756 4.191818 -15.089983 6.642114 -5.643896 0.000000 0.000000 0.000000 24.381347 2.129155 0.389510 3.089990 -4.817697 1.603103 5.048173 -11.295434 -4.586113 -20.551744 -43.200619 -37.437196 2.771005 -42.269264 2.374966 0.000000 0.000000 0.000000 23.489251 1.313466 0.283187 -3.990829 29.241881 16.870041 9.696108 7.180382 3.347069 -45.129252 19.869413 32.117568 -0.267360 29.283982 -1.683350 0.000000 0.000000 0.000000 
